<svg viewBox="0 0 35 30" fill="none" xmlns="http://www.w3.org/2000/svg">
<g clip-path="url(#clip0_437_3)">
<path d="M13.9311 5.12749L9.16403 12.0164L14.8655 15.778L19.6339 8.89583L13.9311 5.12749Z" fill="#EA1D1D"/>
<path d="M13.7115 1.86093C13.3903 2.32457 13.2933 2.87793 13.3942 3.38712C13.4963 3.90295 13.7962 4.37456 14.2714 4.68805L19.9233 8.41701C20.3983 8.73048 20.9654 8.82508 21.4872 8.72668C22.0158 8.627 22.4991 8.33434 22.8203 7.87069C23.1416 7.40706 23.2385 6.8537 23.1377 6.34451C23.0355 5.82868 22.7356 5.35706 22.2605 5.04358L16.6087 1.31462C16.1335 1.00115 15.5665 0.906554 15.0447 1.00495C14.5161 1.10463 14.0328 1.39729 13.7115 1.86093Z" fill="#EA1D1D"/>
<path d="M5.97483 13.0273C5.6536 13.491 5.55665 14.0443 5.65748 14.5535C5.75963 15.0694 6.05955 15.541 6.53467 15.8544L12.1866 19.5834C12.6617 19.8969 13.2288 19.9915 13.7506 19.8931C14.2792 19.7934 14.7625 19.5007 15.0838 19.0371C15.405 18.5735 15.5019 18.0201 15.4011 17.5109C15.299 16.9951 14.9991 16.5235 14.5239 16.21L8.87197 12.481C8.39685 12.1676 7.82979 12.073 7.30799 12.1714C6.77937 12.271 6.29608 12.5637 5.97483 13.0273Z" fill="#EA1D1D"/>
<path d="M16.5826 14.2723L31.5033 24.7455C31.5115 24.7509 31.5197 24.7563 31.5361 24.7671C31.8555 24.9779 32.2309 25.0391 32.5865 24.9651C32.9366 24.8991 33.2615 24.7058 33.487 24.4062C33.5147 24.3662 33.4981 24.3902 33.5092 24.3742L34.7775 22.5436C34.9798 22.2345 35.0412 21.8615 34.9736 21.5199C34.9046 21.1716 34.7065 20.8545 34.3939 20.6424L34.3611 20.6208L18.8422 11.011L16.5826 14.2723Z" fill="#EA1D1D"/>
<path d="M17.4868 27.1741H1.21664C0.881024 27.1741 0.580365 27.3106 0.356605 27.5221C0.132856 27.7404 0 28.0338 0 28.3614V29.7805C0 30.108 0.139844 30.4014 0.356605 30.6198C0.580345 30.8381 0.881004 30.9677 1.21664 30.9677H17.4868C17.8224 30.9677 18.123 30.8313 18.3468 30.6198C18.5705 30.4014 18.7034 30.108 18.7034 29.7805V28.3614C18.7034 28.0338 18.5636 27.7405 18.3468 27.5221C18.123 27.3038 17.8224 27.1741 17.4868 27.1741Z" fill="#EA1D1D"/>
<path d="M15.0881 23.9271H3.62195C3.28632 23.9271 2.98566 24.0636 2.7619 24.2751C2.53815 24.4935 2.4053 24.7868 2.4053 25.1144V26.5335C2.4053 26.5676 2.4053 26.5949 2.41229 26.629H16.2983C16.2983 26.5949 16.3053 26.5676 16.3053 26.5335V25.1144C16.3053 24.7869 16.1655 24.4935 15.9487 24.2751C15.725 24.0568 15.4237 23.9271 15.0881 23.9271Z" fill="#EA1D1D"/>
</g>
<defs>
<clipPath id="clip0_437_3">
<rect width="35" height="30" fill="white"/>
</clipPath>
</defs>
</svg>
