<svg viewBox="0 0 20 20" fill="none" xmlns="http://www.w3.org/2000/svg">
<path fill-rule="evenodd" clip-rule="evenodd" d="M15.2489 8.55021C15.2489 12.1539 12.3276 15.0752 8.724 15.0752C5.12033 15.0752 2.19906 12.1539 2.19906 8.55021C2.19906 4.94651 5.12037 2.02522 8.724 2.02522C12.3277 2.02522 15.2489 4.94655 15.2489 8.55021ZM13.922 15.339C12.4816 16.4436 10.6793 17.1 8.72387 17.1C4.00204 17.1 0.17395 13.272 0.17395 8.54998C0.17395 3.82812 4.00186 0 8.72387 0C13.4457 0 17.2738 3.82794 17.2738 8.54998C17.2738 10.5054 16.6174 12.3077 15.5129 13.7482L19.8445 18.0794C20.2838 18.5187 20.2838 19.2311 19.8445 19.6705C19.405 20.1098 18.6927 20.1098 18.2534 19.6705L13.922 15.339Z" fill="#002e4d"/>
</svg>
