<svg viewBox="0 0 39 36" fill="none" xmlns="http://www.w3.org/2000/svg">
<path d="M15.1762 6.54463L9.99513 14.2173L16.1918 18.407L21.3743 10.7417L21.3476 10.7237L15.2029 6.56267L15.1762 6.54463Z" fill="white"/>
<path d="M14.9375 2.90681C14.5884 3.42319 14.483 4.03951 14.5926 4.60663C14.7037 5.18116 15.0296 5.70643 15.546 6.05559L21.6888 10.2088C22.2052 10.558 22.8216 10.6633 23.3887 10.5537C23.9632 10.4427 24.4885 10.1167 24.8376 9.60035C25.1868 9.08396 25.2921 8.46765 25.1825 7.90052C25.0715 7.326 24.7455 6.80072 24.2292 6.45157L18.0863 2.29834C17.5699 1.94921 16.9536 1.84384 16.3865 1.95343C15.812 2.06445 15.2867 2.39042 14.9375 2.90681Z" fill="white"/>
<path d="M6.52886 15.3442C6.17972 15.8606 6.07436 16.477 6.18395 17.0441C6.29497 17.6186 6.62093 18.1439 7.13732 18.493L13.2802 22.6463C13.7965 22.9954 14.4129 23.1008 14.98 22.9912C15.5545 22.8801 16.0798 22.5542 16.4289 22.0378C16.7781 21.5214 16.8834 20.9051 16.7738 20.338C16.6628 19.7634 16.3369 19.2382 15.8205 18.889L9.67763 14.7358C9.16125 14.3866 8.54493 14.2813 7.9778 14.3909C7.40328 14.5019 6.87801 14.8279 6.52886 15.3442Z" fill="white"/>
<path d="M18.0578 16.7301L34.2744 28.3949C34.2833 28.401 34.2922 28.407 34.3101 28.419C34.6573 28.6538 35.0652 28.722 35.4517 28.6396C35.8322 28.5661 36.1854 28.3508 36.4305 28.017C36.4605 27.9725 36.4425 27.9992 36.4545 27.9814L37.833 25.9426C38.0528 25.5982 38.1196 25.1829 38.0461 24.8024C37.9711 24.4144 37.7558 24.0612 37.4161 23.8251L37.3805 23.801L20.5136 13.0978L18.0578 16.7301Z" fill="white"/>
<path d="M19.0408 31.1002H1.35762C0.992849 31.1002 0.666082 31.2522 0.422882 31.4877C0.179701 31.7309 0.0353069 32.0577 0.0353069 32.4225V34.0031C0.0353069 34.3679 0.187298 34.6947 0.422882 34.9379C0.666063 35.181 0.992832 35.3254 1.35762 35.3254H19.0408C19.4056 35.3254 19.7324 35.1734 19.9756 34.9379C20.2188 34.6947 20.3632 34.3679 20.3632 34.0031V32.4225C20.3632 32.0577 20.2112 31.7309 19.9756 31.4877C19.7324 31.2446 19.4056 31.1002 19.0408 31.1002Z" fill="white"/>
<path d="M16.4339 27.4836H3.97188C3.60711 27.4836 3.28034 27.6356 3.03714 27.8712C2.79396 28.1144 2.64957 28.4411 2.64957 28.8059V30.3866C2.64957 30.4246 2.64957 30.455 2.65717 30.4929H17.7492C17.7492 30.455 17.7568 30.4246 17.7568 30.3866V28.8059C17.7568 28.4412 17.6049 28.1144 17.3693 27.8712C17.1261 27.628 16.7993 27.4836 16.4345 27.4836H16.4339Z" fill="white"/>
</svg>
