<svg viewBox="0 0 18 14" fill="none" xmlns="http://www.w3.org/2000/svg">
<path d="M8.41113 11.6667C7.78977 11.6667 7.28613 12.189 7.28613 12.8333C7.28613 13.4777 7.78977 14 8.41113 14H10.6611C11.2825 14 11.7861 13.4777 11.7861 12.8333C11.7861 12.189 11.2825 11.6667 10.6611 11.6667H8.41113ZM5.03613 5.83333C4.41477 5.83333 3.91113 6.35563 3.91113 7C3.91113 7.64437 4.41477 8.16667 5.03613 8.16667H14.0361C14.6575 8.16667 15.1611 7.64437 15.1611 7C15.1611 6.35563 14.6575 5.83333 14.0361 5.83333H5.03613ZM1.66113 0C1.03977 0 0.536132 0.522293 0.536132 1.16667C0.536132 1.81104 1.03977 2.33333 1.66113 2.33333H17.4111C18.0325 2.33333 18.5361 1.81104 18.5361 1.16667C18.5361 0.522293 18.0325 0 17.4111 0H1.66113Z" fill="white"/>
</svg>
