<svg viewBox="0 0 20 20" fill="none" xmlns="http://www.w3.org/2000/svg">
<path d="M6.847 19.6013V2.56182C6.847 2.20046 6.55426 1.90771 6.19289 1.90771C5.83153 1.90771 5.53879 2.20046 5.53879 2.56182V19.6013H6.847Z" fill="#EA1D1D"/>
<path d="M8.88546 0.832086L8.38503 0.938485L8.35783 0.810547L6.10224 1.29019L6.12943 1.41813L5.64652 1.52088C5.50526 1.551 5.41491 1.68989 5.44484 1.83114C5.47131 1.95415 5.5799 2.03829 5.70072 2.03829C5.71879 2.03829 5.73704 2.03647 5.75548 2.03245L6.23839 1.9297L6.26559 2.05764L8.52118 1.57799L8.49399 1.45005L8.99442 1.34365C9.13568 1.31354 9.22602 1.17465 9.19609 1.03339C9.16543 0.892133 9.02636 0.801058 8.88547 0.832086H8.88546Z" fill="#EA1D1D"/>
<path d="M12.6985 2.41822L12.5216 2.24137L12.6141 2.14902L10.9836 0.518658L10.8911 0.611008L10.3571 0.0767898C10.2547 -0.0255966 10.0893 -0.0255966 9.98713 0.0767898C9.88474 0.178447 9.88474 0.344165 9.98713 0.446182L10.5212 0.980401L10.4286 1.07293L12.0591 2.70329L12.1517 2.61076L12.3285 2.78761C12.3796 2.83872 12.4466 2.86427 12.5136 2.86427C12.5806 2.86427 12.6475 2.83871 12.6986 2.7878C12.8008 2.68614 12.8008 2.52024 12.6985 2.41822L12.6985 2.41822Z" fill="#EA1D1D"/>
<path d="M13.0255 20H5.26172C5.11699 20 5 19.8828 5 19.7383C5 19.5939 5.11699 19.4766 5.26172 19.4766H13.0255C13.1702 19.4766 13.2872 19.5937 13.2872 19.7383C13.2872 19.8828 13.1702 20 13.0255 20Z" fill="#EA1D1D"/>
<path d="M13.6413 6.53192C13.6413 7.35685 12.9724 8.02558 12.1475 8.02558C11.3225 8.02558 10.6538 7.35689 10.6538 6.53192C10.6538 5.70696 11.3225 5.03809 12.1475 5.03809C12.9724 5.03809 13.6413 5.70696 13.6413 6.53192" fill="#EA1D1D"/>
<path d="M9.98671 19.6237V2.56182C9.98671 2.20046 9.69397 1.90771 9.3326 1.90771C8.97124 1.90771 8.6785 2.20046 8.6785 2.56182V19.6382L9.98671 19.6237Z" fill="#EA1D1D"/>
<path d="M14.1015 2.43628C13.746 2.37368 13.4065 2.61112 13.3437 2.96681L12.9508 5.19577C13.43 5.46972 13.7538 5.98495 13.7538 6.57626C13.7538 7.36306 13.1817 8.01497 12.431 8.14252L10.5016 19.5501L11.8603 19.5978L14.6319 3.1942C14.695 2.83813 14.4579 2.49903 14.1015 2.43605L14.1015 2.43628Z" fill="#EA1D1D"/>
</svg>
