<svg viewBox="0 0 20 20" fill="none" xmlns="http://www.w3.org/2000/svg">
<path d="M16.8068 2.67526C14.9107 0.912801 12.4049 -0.0455976 9.81663 0.00166877C7.22832 0.0489351 4.75921 1.09818 2.9287 2.9287C1.09818 4.75921 0.0489351 7.22832 0.00166877 9.81663C-0.0455976 12.4049 0.912801 14.9107 2.67526 16.8068L16.8068 2.67526ZM5.09738 13.5442L4.49399 14.1476C4.45996 14.1816 4.41957 14.2086 4.3751 14.227C4.33064 14.2454 4.28299 14.2549 4.23486 14.2549C4.18674 14.2549 4.13908 14.2454 4.09462 14.227C4.05016 14.2086 4.00976 14.1816 3.97573 14.1476C3.9417 14.1135 3.91471 14.0731 3.89629 14.0287C3.87788 13.9842 3.8684 13.9366 3.8684 13.8884C3.8684 13.8403 3.87788 13.7927 3.89629 13.7482C3.91471 13.7037 3.9417 13.6633 3.97573 13.6293L4.57917 13.026C4.64789 12.9573 4.7411 12.9186 4.8383 12.9186C4.93549 12.9186 5.0287 12.9573 5.09743 13.026C5.16615 13.0947 5.20476 13.1879 5.20476 13.2851C5.20476 13.3823 5.16615 13.4755 5.09743 13.5442H5.09738ZM6.60572 12.0359L6.00245 12.6391C5.93372 12.7078 5.84051 12.7465 5.74332 12.7465C5.64612 12.7465 5.55291 12.7078 5.48419 12.6391C5.41546 12.5704 5.37685 12.4772 5.37685 12.38C5.37685 12.2828 5.41546 12.1896 5.48419 12.1209L6.08752 11.5175C6.12155 11.4835 6.16194 11.4565 6.20641 11.4381C6.25087 11.4197 6.29852 11.4102 6.34665 11.4102C6.39477 11.4102 6.44243 11.4197 6.48689 11.4381C6.53135 11.4565 6.57175 11.4835 6.60578 11.5175C6.63981 11.5516 6.6668 11.592 6.68522 11.6364C6.70363 11.6809 6.71311 11.7285 6.71311 11.7767C6.71311 11.8248 6.70363 11.8724 6.68522 11.9169C6.6668 11.9614 6.63981 12.0018 6.60578 12.0358L6.60572 12.0359ZM8.11407 10.5275L7.51069 11.1309C7.47666 11.165 7.43626 11.192 7.3918 11.2104C7.34734 11.2288 7.29969 11.2383 7.25156 11.2383C7.20344 11.2383 7.15578 11.2288 7.11132 11.2104C7.06686 11.192 7.02646 11.165 6.99243 11.1309C6.9584 11.0969 6.93141 11.0565 6.91299 11.012C6.89457 10.9676 6.8851 10.9199 6.8851 10.8718C6.8851 10.8237 6.89457 10.776 6.91299 10.7316C6.93141 10.6871 6.9584 10.6467 6.99243 10.6127L7.59576 10.0093C7.62979 9.97531 7.67019 9.94832 7.71465 9.9299C7.75911 9.91148 7.80677 9.902 7.85489 9.902C7.90302 9.902 7.95067 9.91148 7.99513 9.9299C8.03959 9.94832 8.07999 9.97531 8.11402 10.0093C8.14805 10.0434 8.17505 10.0838 8.19346 10.1282C8.21188 10.1727 8.22136 10.2203 8.22136 10.2685C8.22136 10.3166 8.21188 10.3642 8.19346 10.4087C8.17505 10.4532 8.14805 10.4936 8.11402 10.5276L8.11407 10.5275ZM9.62248 9.0192L9.01915 9.62242C8.95042 9.69115 8.85721 9.72976 8.76002 9.72976C8.66282 9.72976 8.56961 9.69115 8.50089 9.62242C8.43216 9.5537 8.39355 9.46049 8.39355 9.36329C8.39355 9.2661 8.43216 9.17289 8.50089 9.10416L9.10427 8.50078C9.17299 8.43205 9.2662 8.39345 9.3634 8.39345C9.46059 8.39345 9.5538 8.43205 9.62253 8.50078C9.69125 8.56951 9.72986 8.66272 9.72986 8.75991C9.72986 8.8571 9.69125 8.95032 9.62253 9.01904L9.62248 9.0192ZM11.1309 7.51074L10.5275 8.11407C10.4588 8.1828 10.3656 8.22141 10.2684 8.22141C10.1712 8.22141 10.078 8.1828 10.0093 8.11407C9.94056 8.04535 9.90195 7.95214 9.90195 7.85494C9.90195 7.75775 9.94056 7.66454 10.0093 7.59581L10.6127 6.99248C10.6467 6.95845 10.6871 6.93146 10.7316 6.91304C10.776 6.89463 10.8237 6.88515 10.8718 6.88515C10.9199 6.88515 10.9676 6.89463 11.012 6.91304C11.0565 6.93146 11.0969 6.95845 11.1309 6.99248C11.165 7.02651 11.192 7.06691 11.2104 7.11137C11.2288 7.15583 11.2383 7.20349 11.2383 7.25161C11.2383 7.29974 11.2288 7.34739 11.2104 7.39185C11.192 7.43632 11.165 7.47671 11.1309 7.51074V7.51074ZM12.6393 6.00239L12.036 6.60572C12.0019 6.63975 11.9615 6.66675 11.9171 6.68516C11.8726 6.70358 11.8249 6.71306 11.7768 6.71306C11.6796 6.71306 11.5864 6.67445 11.5177 6.60572C11.449 6.537 11.4104 6.44379 11.4104 6.34659C11.4104 6.2494 11.449 6.15619 11.5177 6.08746L12.1211 5.48408C12.1898 5.41536 12.283 5.37675 12.3802 5.37675C12.4774 5.37675 12.5706 5.41536 12.6393 5.48408C12.7081 5.55281 12.7467 5.64602 12.7467 5.74321C12.7467 5.84041 12.7081 5.93362 12.6393 6.00234L12.6393 6.00239ZM14.1476 4.49405L13.5442 5.09737C13.4755 5.1661 13.3823 5.20471 13.2851 5.20471C13.1879 5.20471 13.0947 5.1661 13.026 5.09737C12.9573 5.02865 12.9187 4.93544 12.9187 4.83824C12.9187 4.74105 12.9573 4.64784 13.026 4.57911L13.6293 3.97573C13.6633 3.9417 13.7037 3.91471 13.7482 3.89629C13.7927 3.87788 13.8403 3.8684 13.8884 3.8684C13.9366 3.8684 13.9842 3.87788 14.0287 3.89629C14.0731 3.91471 14.1135 3.9417 14.1476 3.97573C14.1816 4.00976 14.2086 4.05016 14.227 4.09462C14.2454 4.13908 14.2549 4.18674 14.2549 4.23486C14.2549 4.28299 14.2454 4.33064 14.227 4.3751C14.2086 4.41957 14.1816 4.45996 14.1476 4.49399L14.1476 4.49405ZM15.6225 2.50099C15.6566 2.53502 15.6836 2.57542 15.702 2.61988C15.7204 2.66434 15.7299 2.712 15.7299 2.76012C15.7299 2.80825 15.7204 2.8559 15.702 2.90036C15.6836 2.94483 15.6566 2.98522 15.6225 3.01925L15.0192 3.62258C14.9852 3.65661 14.9448 3.68361 14.9003 3.70202C14.8558 3.72044 14.8082 3.72992 14.7601 3.72992C14.7119 3.72992 14.6643 3.72044 14.6198 3.70202C14.5754 3.68361 14.535 3.65661 14.5009 3.62258C14.4669 3.58855 14.4399 3.54815 14.4215 3.50369C14.4031 3.45923 14.3936 3.41158 14.3936 3.36345C14.3936 3.31533 14.4031 3.26767 14.4215 3.22321C14.4399 3.17875 14.4669 3.13835 14.5009 3.10432L15.1043 2.50099C15.1383 2.46696 15.1787 2.43996 15.2232 2.42155C15.2676 2.40313 15.3153 2.39365 15.3634 2.39365C15.4115 2.39365 15.4592 2.40313 15.5036 2.42155C15.5481 2.43996 15.5885 2.46696 15.6225 2.50099V2.50099ZM13.5959 2.1993L14.199 1.59597C14.2331 1.56194 14.2735 1.53495 14.3179 1.51653C14.3624 1.49811 14.41 1.48864 14.4582 1.48864C14.5063 1.48864 14.5539 1.49811 14.5984 1.51653C14.6429 1.53495 14.6833 1.56194 14.7173 1.59597C14.7513 1.63 14.7783 1.6704 14.7967 1.71486C14.8152 1.75932 14.8246 1.80698 14.8246 1.8551C14.8246 1.90323 14.8152 1.95088 14.7967 1.99534C14.7783 2.0398 14.7513 2.0802 14.7173 2.11423L14.114 2.71761C14.0452 2.78634 13.952 2.82495 13.8548 2.82495C13.7576 2.82495 13.6644 2.78634 13.5957 2.71761C13.527 2.64889 13.4884 2.55568 13.4884 2.45848C13.4884 2.36129 13.527 2.26808 13.5957 2.19935L13.5959 2.1993ZM12.1211 3.67415L12.7244 3.07082C12.7931 3.00209 12.8863 2.96348 12.9835 2.96348C13.0807 2.96348 13.1739 3.00209 13.2427 3.07082C13.3114 3.13954 13.35 3.23275 13.35 3.32995C13.35 3.42714 13.3114 3.52035 13.2427 3.58908L12.6393 4.19241C12.5706 4.26113 12.4774 4.29974 12.3802 4.29974C12.283 4.29974 12.1898 4.26113 12.1211 4.19241C12.0523 4.12368 12.0137 4.03047 12.0137 3.93328C12.0137 3.83608 12.0523 3.74287 12.1211 3.67415H12.1211ZM10.6127 5.18249L11.2161 4.57917C11.2848 4.51044 11.378 4.47183 11.4752 4.47183C11.5724 4.47183 11.6656 4.51044 11.7343 4.57917C11.803 4.64789 11.8416 4.7411 11.8416 4.8383C11.8416 4.93549 11.803 5.0287 11.7343 5.09743L11.1309 5.7007C11.0969 5.73473 11.0565 5.76173 11.012 5.78014C10.9676 5.79856 10.9199 5.80804 10.8718 5.80804C10.7746 5.80804 10.6814 5.76943 10.6127 5.7007C10.5439 5.63198 10.5053 5.53877 10.5053 5.44157C10.5053 5.34438 10.5439 5.25117 10.6127 5.18244V5.18249ZM9.10432 6.69084L9.7076 6.08752C9.74163 6.05349 9.78203 6.02649 9.82649 6.00808C9.87095 5.98966 9.9186 5.98018 9.96673 5.98018C10.0149 5.98018 10.0625 5.98966 10.107 6.00808C10.1514 6.02649 10.1918 6.05349 10.2259 6.08752C10.2599 6.12155 10.2869 6.16194 10.3053 6.20641C10.3237 6.25087 10.3332 6.29852 10.3332 6.34665C10.3332 6.39477 10.3237 6.44242 10.3053 6.48689C10.2869 6.53135 10.2599 6.57175 10.2259 6.60578L9.62253 7.20916C9.5538 7.27788 9.46059 7.31649 9.3634 7.31649C9.2662 7.31649 9.17299 7.27788 9.10427 7.20916C9.03554 7.14043 8.99693 7.04722 8.99693 6.95003C8.99693 6.85283 9.03554 6.75962 9.10427 6.6909L9.10432 6.69084ZM7.59581 8.19935L8.19935 7.59587C8.26808 7.52714 8.36129 7.48853 8.45848 7.48853C8.55568 7.48853 8.64889 7.52714 8.71761 7.59587C8.78634 7.66459 8.82495 7.7578 8.82495 7.855C8.82495 7.95219 8.78634 8.0454 8.71761 8.11413L8.11413 8.71761C8.0454 8.78634 7.95219 8.82495 7.855 8.82495C7.7578 8.82495 7.66459 8.78634 7.59587 8.71761C7.52714 8.64889 7.48853 8.55567 7.48853 8.45848C7.48853 8.36129 7.52714 8.26808 7.59587 8.19935H7.59581ZM6.08746 9.70754L6.69079 9.10421C6.75952 9.03549 6.85273 8.99688 6.94992 8.99688C7.04712 8.99688 7.14033 9.03549 7.20905 9.10421C7.27778 9.17294 7.31639 9.26615 7.31639 9.36335C7.31639 9.46054 7.27778 9.55375 7.20905 9.62248L6.60572 10.2258C6.537 10.2945 6.44379 10.3331 6.34659 10.3331C6.2494 10.3331 6.15619 10.2945 6.08746 10.2258C6.01874 10.1571 5.98013 10.0639 5.98013 9.96667C5.98013 9.86948 6.01874 9.77627 6.08746 9.70754V9.70754ZM4.57911 11.2159L5.1825 10.6127C5.25122 10.5439 5.34443 10.5053 5.44163 10.5053C5.53882 10.5053 5.63203 10.5439 5.70076 10.6127C5.76948 10.6814 5.80809 10.7746 5.80809 10.8718C5.80809 10.969 5.76948 11.0622 5.70076 11.1309L5.09743 11.7343C5.0287 11.803 4.93549 11.8416 4.8383 11.8416C4.7411 11.8416 4.64789 11.803 4.57917 11.7343C4.51044 11.6656 4.47183 11.5724 4.47183 11.4752C4.47183 11.378 4.51044 11.2848 4.57917 11.2161L4.57911 11.2159ZM3.07076 12.7242L3.67409 12.1209C3.70812 12.0869 3.74852 12.0599 3.79298 12.0415C3.83745 12.0231 3.8851 12.0136 3.93322 12.0136C3.98135 12.0136 4.029 12.0231 4.07346 12.0415C4.11793 12.0599 4.15833 12.0869 4.19236 12.1209C4.22638 12.1549 4.25338 12.1953 4.2718 12.2398C4.29021 12.2843 4.29969 12.3319 4.29969 12.38C4.29969 12.4282 4.29021 12.4758 4.2718 12.5203C4.25338 12.5647 4.22638 12.6051 4.19236 12.6392L3.58897 13.2426C3.55494 13.2766 3.51454 13.3036 3.47008 13.322C3.42562 13.3404 3.37797 13.3499 3.32984 13.3499C3.28172 13.3499 3.23406 13.3404 3.1896 13.322C3.14514 13.3036 3.10474 13.2766 3.07071 13.2426C3.03668 13.2085 3.00969 13.1681 2.99127 13.1237C2.97286 13.0792 2.96338 13.0316 2.96338 12.9834C2.96338 12.9353 2.97286 12.8876 2.99127 12.8432C3.00969 12.7987 3.03668 12.7583 3.07071 12.7243L3.07076 12.7242ZM1.85505 14.8247C1.78257 14.8247 1.71172 14.8032 1.65145 14.7629C1.59118 14.7227 1.54421 14.6654 1.51647 14.5985C1.48873 14.5315 1.48148 14.4578 1.49562 14.3867C1.50976 14.3156 1.54466 14.2503 1.59592 14.1991L2.19925 13.5958C2.26797 13.527 2.36119 13.4884 2.45838 13.4884C2.55557 13.4884 2.64878 13.527 2.71751 13.5958C2.78624 13.6645 2.82484 13.7577 2.82484 13.8549C2.82484 13.9521 2.78624 14.0453 2.71751 14.114L2.11413 14.7174C2.08014 14.7514 2.03975 14.7784 1.99529 14.7969C1.95083 14.8153 1.90317 14.8247 1.85505 14.8247V14.8247ZM2.50094 15.1041L3.10427 14.5007C3.1383 14.4667 3.1787 14.4397 3.22316 14.4213C3.26762 14.4029 3.31527 14.3934 3.3634 14.3934C3.41152 14.3934 3.45918 14.4029 3.50364 14.4213C3.5481 14.4397 3.5885 14.4667 3.62253 14.5007C3.65656 14.5348 3.68355 14.5752 3.70197 14.6196C3.72039 14.6641 3.72986 14.7117 3.72986 14.7599C3.72986 14.808 3.72039 14.8556 3.70197 14.9001C3.68355 14.9446 3.65656 14.985 3.62253 15.019L3.0192 15.6225C2.95047 15.6913 2.85726 15.7299 2.76007 15.7299C2.66288 15.7299 2.56966 15.6913 2.50094 15.6225C2.43221 15.5538 2.3936 15.4606 2.3936 15.3634C2.3936 15.2662 2.43221 15.173 2.50094 15.1043V15.1041ZM3.19352 17.3251C5.08964 19.0874 7.59535 20.0457 10.1836 19.9983C12.7718 19.951 15.2407 18.9017 17.0711 17.0711V17.0711C18.9017 15.2408 19.9511 12.7717 19.9984 10.1834C20.0458 7.59517 19.0875 5.0894 17.325 3.19326L3.19352 17.3251ZM14.903 6.45611L15.5064 5.85278C15.5404 5.81875 15.5808 5.79176 15.6253 5.77334C15.6697 5.75492 15.7174 5.74544 15.7655 5.74544C15.8136 5.74544 15.8613 5.75492 15.9057 5.77334C15.9502 5.79176 15.9906 5.81875 16.0246 5.85278C16.0587 5.88681 16.0856 5.92721 16.1041 5.97167C16.1225 6.01613 16.132 6.06379 16.132 6.11191C16.132 6.16004 16.1225 6.20769 16.1041 6.25215C16.0856 6.29661 16.0587 6.33701 16.0246 6.37104L15.4212 6.97437C15.3872 7.0084 15.3468 7.03539 15.3023 7.05381C15.2578 7.07223 15.2102 7.08171 15.1621 7.08171C15.1139 7.08171 15.0663 7.07223 15.0218 7.05381C14.9774 7.03539 14.937 7.0084 14.9029 6.97437C14.8689 6.94034 14.8419 6.89994 14.8235 6.85548C14.8051 6.81102 14.7956 6.76336 14.7956 6.71524C14.7956 6.66711 14.8051 6.61946 14.8235 6.575C14.8419 6.53054 14.8689 6.49014 14.9029 6.45611H14.903ZM13.3946 7.96446L13.9979 7.36113C14.0666 7.2924 14.1598 7.25379 14.257 7.25379C14.3542 7.25379 14.4474 7.2924 14.5162 7.36113C14.5849 7.42985 14.6235 7.52307 14.6235 7.62026C14.6235 7.71745 14.5849 7.81066 14.5162 7.87939L13.9128 8.48272C13.8441 8.55145 13.7509 8.59005 13.6537 8.59005C13.5565 8.59005 13.4633 8.55145 13.3946 8.48272C13.3259 8.41399 13.2872 8.32078 13.2872 8.22359C13.2872 8.1264 13.3259 8.03318 13.3946 7.96446H13.3946ZM11.8863 9.47281L12.4897 8.86943C12.5584 8.8007 12.6516 8.76209 12.7488 8.76209C12.846 8.76209 12.9392 8.8007 13.0079 8.86943C13.0767 8.93815 13.1153 9.03136 13.1153 9.12856C13.1153 9.22575 13.0767 9.31896 13.0079 9.38769L12.4046 9.99102C12.3359 10.0597 12.2427 10.0984 12.1455 10.0984C12.0483 10.0984 11.9551 10.0597 11.8863 9.99102C11.8176 9.92229 11.779 9.82908 11.779 9.73189C11.779 9.63469 11.8176 9.54148 11.8863 9.47276L11.8863 9.47281ZM10.3779 10.9812L10.9812 10.3778C11.0499 10.3091 11.1431 10.2705 11.2403 10.2705C11.3375 10.2705 11.4307 10.3091 11.4995 10.3778C11.5682 10.4466 11.6068 10.5398 11.6068 10.637C11.6068 10.7342 11.5682 10.8274 11.4995 10.8961L10.8961 11.4995C10.8621 11.5335 10.8217 11.5605 10.7772 11.5789C10.7327 11.5973 10.6851 11.6068 10.637 11.6068C10.5888 11.6068 10.5412 11.5973 10.4967 11.5789C10.4523 11.5605 10.4119 11.5335 10.3778 11.4995C10.3438 11.4654 10.3168 11.425 10.2984 11.3806C10.28 11.3361 10.2705 11.2885 10.2705 11.2403C10.2705 11.1922 10.28 11.1446 10.2984 11.1001C10.3168 11.0556 10.3438 11.0152 10.3778 10.9812L10.3779 10.9812ZM8.86943 12.4896L9.47281 11.8863C9.54153 11.8176 9.63475 11.7789 9.73194 11.7789C9.82913 11.7789 9.92234 11.8176 9.99107 11.8863C10.0598 11.955 10.0984 12.0482 10.0984 12.1454C10.0984 12.2426 10.0598 12.3358 9.99107 12.4045L9.38769 13.0079C9.31896 13.0766 9.22575 13.1152 9.12856 13.1152C9.03136 13.1152 8.93815 13.0766 8.86943 13.0079C8.8007 12.9391 8.76209 12.8459 8.76209 12.7487C8.76209 12.6515 8.8007 12.5583 8.86943 12.4896ZM7.36108 13.998L7.96441 13.3946C7.99844 13.3606 8.03883 13.3336 8.0833 13.3152C8.12776 13.2968 8.17541 13.2873 8.22354 13.2873C8.27166 13.2873 8.31932 13.2968 8.36378 13.3152C8.40824 13.3336 8.44864 13.3606 8.48267 13.3946C8.5167 13.4287 8.54369 13.4691 8.56211 13.5135C8.58052 13.558 8.59 13.6056 8.59 13.6538C8.59 13.7019 8.58052 13.7495 8.56211 13.794C8.54369 13.8385 8.5167 13.8789 8.48267 13.9129L7.87929 14.5163C7.84526 14.5503 7.80486 14.5773 7.7604 14.5957C7.71593 14.6141 7.66828 14.6236 7.62016 14.6236C7.57203 14.6236 7.52438 14.6141 7.47992 14.5957C7.43545 14.5773 7.39505 14.5503 7.36102 14.5163C7.327 14.4822 7.3 14.4418 7.28159 14.3974C7.26317 14.3529 7.25369 14.3053 7.25369 14.2571C7.25369 14.209 7.26317 14.1614 7.28159 14.1169C7.3 14.0724 7.327 14.032 7.36102 13.998L7.36108 13.998ZM5.85283 15.5063L6.45611 14.903C6.49014 14.869 6.53054 14.842 6.575 14.8235C6.61946 14.8051 6.66712 14.7956 6.71524 14.7956C6.76337 14.7956 6.81102 14.8051 6.85548 14.8235C6.89994 14.842 6.94034 14.869 6.97437 14.903C7.0084 14.937 7.03539 14.9774 7.05381 15.0219C7.07223 15.0663 7.08171 15.114 7.08171 15.1621C7.08171 15.2102 7.07223 15.2579 7.05381 15.3024C7.03539 15.3468 7.0084 15.3872 6.97437 15.4212L6.37115 16.0246C6.33712 16.0586 6.29672 16.0856 6.25226 16.104C6.20779 16.1224 6.16014 16.1319 6.11202 16.1319C6.06389 16.1319 6.01624 16.1224 5.97178 16.104C5.92731 16.0856 5.88691 16.0586 5.85288 16.0246C5.81885 15.9905 5.79186 15.9501 5.77344 15.9057C5.75503 15.8612 5.74555 15.8136 5.74555 15.7654C5.74555 15.7173 5.75503 15.6697 5.77344 15.6252C5.79186 15.5807 5.81885 15.5403 5.85288 15.5063H5.85283ZM4.63717 17.6066C4.56469 17.6066 4.49384 17.5851 4.43357 17.5448C4.3733 17.5046 4.32633 17.4473 4.29859 17.3804C4.27085 17.3134 4.2636 17.2397 4.27774 17.1686C4.29188 17.0975 4.32679 17.0322 4.37804 16.981L4.98137 16.3777C5.0154 16.3436 5.0558 16.3166 5.10026 16.2982C5.14472 16.2798 5.19237 16.2703 5.2405 16.2703C5.28862 16.2703 5.33628 16.2798 5.38074 16.2982C5.4252 16.3166 5.4656 16.3436 5.49963 16.3777C5.53366 16.4117 5.56065 16.4521 5.57907 16.4966C5.59749 16.541 5.60697 16.5887 5.60697 16.6368C5.60697 16.6849 5.59749 16.7326 5.57907 16.777C5.56065 16.8215 5.53366 16.8619 5.49963 16.8959L4.89609 17.4994C4.86211 17.5334 4.82175 17.5604 4.77732 17.5788C4.73289 17.5972 4.68526 17.6066 4.63717 17.6066V17.6066ZM6.40465 17.8009L5.80132 18.4044C5.76729 18.4384 5.72689 18.4654 5.68243 18.4838C5.63797 18.5022 5.59031 18.5117 5.54219 18.5117C5.49406 18.5117 5.44641 18.5022 5.40195 18.4838C5.35749 18.4654 5.31709 18.4384 5.28306 18.4044C5.24903 18.3704 5.22204 18.33 5.20362 18.2855C5.1852 18.241 5.17572 18.1934 5.17572 18.1453C5.17572 18.0971 5.1852 18.0495 5.20362 18.005C5.22204 17.9606 5.24903 17.9202 5.28306 17.8861L5.88639 17.2827C5.95511 17.214 6.04833 17.1754 6.14552 17.1754C6.24271 17.1754 6.33592 17.214 6.40465 17.2827C6.47338 17.3515 6.51199 17.4447 6.51199 17.5419C6.51199 17.6391 6.47338 17.7323 6.40465 17.801V17.8009ZM7.87944 16.3261L7.27617 16.9294C7.20744 16.9981 7.11423 17.0367 7.01704 17.0367C6.91984 17.0367 6.82663 16.9981 6.75791 16.9294C6.68918 16.8607 6.65057 16.7674 6.65057 16.6703C6.65057 16.5731 6.68918 16.4798 6.75791 16.4111L7.36123 15.8078C7.42996 15.7391 7.52317 15.7005 7.62036 15.7005C7.71756 15.7005 7.81077 15.7391 7.8795 15.8078C7.94822 15.8765 7.98683 15.9697 7.98683 16.0669C7.98683 16.1641 7.94822 16.2573 7.8795 16.3261H7.87944ZM9.38769 14.8179L8.78431 15.4212C8.75028 15.4552 8.70988 15.4822 8.66542 15.5006C8.62095 15.519 8.5733 15.5285 8.52518 15.5285C8.47705 15.5285 8.4294 15.519 8.38494 15.5006C8.34047 15.4822 8.30007 15.4552 8.26604 15.4212C8.23202 15.3872 8.20502 15.3468 8.1866 15.3023C8.16819 15.2578 8.15871 15.2102 8.15871 15.1621C8.15871 15.1139 8.16819 15.0663 8.1866 15.0218C8.20502 14.9774 8.23202 14.937 8.26604 14.9029L8.86943 14.2997C8.90346 14.2656 8.94386 14.2386 8.98832 14.2202C9.03278 14.2018 9.08043 14.1923 9.12856 14.1923C9.17668 14.1923 9.22434 14.2018 9.2688 14.2202C9.31326 14.2386 9.35366 14.2656 9.38769 14.2997C9.42172 14.3337 9.44871 14.3741 9.46713 14.4185C9.48554 14.463 9.49502 14.5107 9.49502 14.5588C9.49502 14.6069 9.48554 14.6546 9.46713 14.699C9.44871 14.7435 9.42172 14.7839 9.38769 14.8179V14.8179ZM10.896 13.3095L10.2928 13.9128C10.2587 13.9469 10.2183 13.9739 10.1739 13.9923C10.1294 14.0107 10.0818 14.0202 10.0336 14.0202C9.98551 14.0202 9.93785 14.0107 9.89339 13.9923C9.84893 13.9739 9.80853 13.9469 9.7745 13.9128C9.74047 13.8788 9.71348 13.8384 9.69506 13.794C9.67664 13.7495 9.66716 13.7018 9.66716 13.6537C9.66716 13.6056 9.67664 13.5579 9.69506 13.5135C9.71348 13.469 9.74047 13.4286 9.7745 13.3946L10.3778 12.7912C10.4119 12.7572 10.4523 12.7302 10.4967 12.7118C10.5412 12.6933 10.5888 12.6839 10.637 12.6839C10.6851 12.6839 10.7327 12.6933 10.7772 12.7118C10.8217 12.7302 10.8621 12.7572 10.8961 12.7912C10.9301 12.8252 10.9571 12.8656 10.9755 12.9101C10.9939 12.9545 11.0034 13.0022 11.0034 13.0503C11.0034 13.0985 10.9939 13.1461 10.9755 13.1906C10.9571 13.235 10.9301 13.2754 10.8961 13.3095L10.896 13.3095ZM12.4045 11.801L11.801 12.4045C11.767 12.4385 11.7266 12.4655 11.6821 12.4839C11.6377 12.5023 11.59 12.5118 11.5419 12.5118C11.4938 12.5118 11.4461 12.5023 11.4016 12.4839C11.3572 12.4655 11.3168 12.4385 11.2827 12.4045C11.2487 12.3705 11.2217 12.3301 11.2033 12.2856C11.1849 12.2411 11.1754 12.1935 11.1754 12.1454C11.1754 12.0972 11.1849 12.0496 11.2033 12.0051C11.2217 11.9607 11.2487 11.9203 11.2827 11.8862L11.8862 11.2827C11.9203 11.2487 11.9607 11.2217 12.0051 11.2033C12.0496 11.1849 12.0972 11.1754 12.1454 11.1754C12.1935 11.1754 12.2411 11.1849 12.2856 11.2033C12.3301 11.2217 12.3705 11.2487 12.4045 11.2827C12.4385 11.3168 12.4655 11.3572 12.4839 11.4016C12.5023 11.4461 12.5118 11.4937 12.5118 11.5419C12.5118 11.59 12.5023 11.6377 12.4839 11.6821C12.4655 11.7266 12.4385 11.767 12.4045 11.801H12.4045ZM13.9129 10.2927L13.3096 10.896C13.2755 10.93 13.2351 10.957 13.1907 10.9754C13.1462 10.9938 13.0986 11.0033 13.0504 11.0033C13.0023 11.0033 12.9547 10.9938 12.9102 10.9754C12.8657 10.957 12.8253 10.93 12.7913 10.896C12.7573 10.862 12.7303 10.8216 12.7119 10.7771C12.6934 10.7326 12.684 10.685 12.684 10.6369C12.684 10.5887 12.6934 10.5411 12.7119 10.4966C12.7303 10.4522 12.7573 10.4118 12.7913 10.3777L13.3947 9.77434C13.4287 9.74031 13.4691 9.71332 13.5136 9.6949C13.558 9.67649 13.6057 9.66701 13.6538 9.66701C13.7019 9.66701 13.7496 9.67649 13.7941 9.6949C13.8385 9.71332 13.8789 9.74031 13.9129 9.77434C13.947 9.80837 13.974 9.84877 13.9924 9.89323C14.0108 9.93769 14.0203 9.98535 14.0203 10.0335C14.0203 10.0816 14.0108 10.1293 13.9924 10.1737C13.974 10.2182 13.947 10.2586 13.9129 10.2926L13.9129 10.2927ZM15.4212 8.78431L14.8179 9.38769C14.7491 9.45641 14.6559 9.49502 14.5587 9.49502C14.4615 9.49502 14.3683 9.45641 14.2996 9.38769C14.2309 9.31896 14.1923 9.22575 14.1923 9.12856C14.1923 9.03136 14.2309 8.93815 14.2996 8.86943L14.9029 8.26604C14.937 8.23201 14.9774 8.20502 15.0218 8.1866C15.0663 8.16819 15.1139 8.15871 15.1621 8.15871C15.2102 8.15871 15.2578 8.16819 15.3023 8.1866C15.3468 8.20502 15.3872 8.23201 15.4212 8.26604C15.4552 8.30007 15.4822 8.34047 15.5006 8.38493C15.519 8.4294 15.5285 8.47705 15.5285 8.52518C15.5285 8.5733 15.519 8.62095 15.5006 8.66542C15.4822 8.70988 15.4552 8.75028 15.4212 8.78431H15.4212ZM16.9296 7.27596L16.3263 7.87929C16.2575 7.94801 16.1643 7.98662 16.0671 7.98662C15.9699 7.98662 15.8767 7.94801 15.808 7.87929C15.7393 7.81056 15.7007 7.71735 15.7007 7.62015C15.7007 7.52296 15.7393 7.42975 15.808 7.36102L16.4114 6.75764C16.4801 6.68892 16.5733 6.65031 16.6705 6.65031C16.7677 6.65031 16.8609 6.68892 16.9296 6.75764C16.9984 6.82637 17.037 6.91958 17.037 7.01677C17.037 7.11397 16.9984 7.20718 16.9296 7.2759L16.9296 7.27596ZM18.4044 5.2829C18.4385 5.31693 18.4655 5.35733 18.4839 5.40179C18.5023 5.44625 18.5118 5.49391 18.5118 5.54203C18.5118 5.59016 18.5023 5.63781 18.4839 5.68227C18.4655 5.72674 18.4385 5.76713 18.4044 5.80116L17.8011 6.40449C17.7324 6.47322 17.6392 6.51183 17.542 6.51183C17.4448 6.51183 17.3516 6.47322 17.2828 6.40449C17.2141 6.33577 17.1755 6.24255 17.1755 6.14536C17.1755 6.04817 17.2141 5.95496 17.2828 5.88623L17.8862 5.2829C17.955 5.21421 18.0482 5.17563 18.1454 5.17566C18.2425 5.17569 18.3357 5.21432 18.4044 5.28306V5.2829ZM17.4994 4.89609L16.8961 5.49947C16.8274 5.5682 16.7342 5.60681 16.637 5.60681C16.5398 5.60681 16.4466 5.5682 16.3778 5.49947C16.3091 5.43075 16.2705 5.33753 16.2705 5.24034C16.2705 5.14315 16.3091 5.04994 16.3778 4.98121L16.9812 4.37783C17.0152 4.3438 17.0556 4.31681 17.1 4.29839C17.1445 4.27997 17.1922 4.27049 17.2403 4.27049C17.2884 4.27049 17.3361 4.27997 17.3805 4.29839C17.425 4.31681 17.4654 4.3438 17.4994 4.37783C17.5334 4.41186 17.5604 4.45226 17.5789 4.49672C17.5973 4.54118 17.6068 4.58884 17.6068 4.63696C17.6068 4.68509 17.5973 4.73274 17.5789 4.7772C17.5604 4.82166 17.5334 4.86206 17.4994 4.89609V4.89609Z" fill="#EA1D1D"/>
</svg>
