<svg viewBox="0 0 20 20" fill="none" xmlns="http://www.w3.org/2000/svg">
<path d="M5.10256 3.36087C4.62133 2.87971 3.84216 2.87971 3.36093 3.36087C2.87969 3.84203 2.87969 4.62108 3.36093 5.10224L6.08166 7.82255L6.08997 7.81423L6.66964 8.39381L6.37172 8.6917L6.54671 9.91078C6.56027 9.99827 6.59877 10.0805 6.66133 10.1431L13.1882 16.6689C13.9074 17.388 15.3621 16.8163 16.0892 16.0893C16.8163 15.3623 17.3881 13.9075 16.6689 13.1888L10.145 6.66032C10.082 6.59733 10.0002 6.55622 9.91274 6.54572L8.69346 6.37075L8.40909 6.65507L5.10256 3.36087Z" fill="#EA1D1D"/>
<path d="M11.0214 7.375C12.2545 7.375 13.2085 6.38621 13.2085 5.1875C13.2085 3.95414 12.2199 3 11.0214 3C9.78833 3 8.83438 3.98879 8.83438 5.1875C8.79974 6.38972 9.78833 7.375 11.0214 7.375Z" fill="#EA1D1D"/>
</svg>
