<?xml version="1.0" standalone="no"?>
<!DOCTYPE svg PUBLIC "-//W3C//DTD SVG 20010904//EN"
 "http://www.w3.org/TR/2001/REC-SVG-20010904/DTD/svg10.dtd">
<svg version="1.0" xmlns="http://www.w3.org/2000/svg"
 width="1024.000000pt" height="1024.000000pt" viewBox="0 0 1024.000000 1024.000000"
 preserveAspectRatio="xMidYMid meet">
<metadata>
Created by potrace 1.14, written by Peter Selinger 2001-2017
</metadata>
<g transform="translate(0.000000,1024.000000) scale(0.100000,-0.100000)"
fill="#000000" stroke="none">
<path d="M4889 9116 c-2 -2 -49 -7 -104 -10 -189 -12 -474 -60 -695 -117 -113
-29 -408 -124 -472 -152 -18 -8 -73 -31 -123 -52 -114 -49 -392 -190 -467
-238 -31 -21 -59 -37 -62 -37 -8 0 -217 -142 -240 -162 -11 -10 -23 -18 -27
-18 -4 0 -14 -6 -21 -13 -7 -7 -56 -46 -108 -87 -195 -153 -365 -315 -555
-531 -105 -118 -313 -404 -394 -540 -259 -434 -448 -921 -527 -1359 -4 -25 -8
-47 -9 -50 -2 -7 -18 -112 -20 -130 -1 -8 -5 -33 -8 -55 -22 -128 -31 -291
-32 -540 0 -213 7 -369 19 -445 2 -14 7 -50 11 -80 6 -56 14 -110 20 -145 14
-84 39 -209 51 -255 8 -30 16 -66 19 -80 14 -81 113 -385 167 -515 16 -38 30
-74 32 -80 11 -42 142 -304 218 -438 97 -169 309 -481 358 -527 3 -3 16 -18
29 -35 81 -105 375 -409 490 -505 29 -25 63 -53 75 -64 11 -10 37 -30 56 -45
19 -14 37 -28 40 -31 14 -15 125 -93 200 -141 319 -207 630 -339 1010 -429 47
-11 99 -22 115 -25 17 -2 73 -11 125 -19 230 -35 302 -40 600 -40 233 -1 453
8 469 19 3 2 33 6 66 9 33 4 67 8 75 11 8 2 31 6 50 9 19 3 71 15 115 26 44
11 89 22 99 25 184 44 419 166 520 270 173 178 115 364 -153 492 -117 56 -117
55 -216 87 -95 30 -295 78 -420 99 -86 15 -111 19 -200 32 -22 3 -69 10 -105
15 -36 5 -83 12 -105 15 -22 3 -80 12 -130 20 -49 7 -108 16 -130 19 -22 4
-65 11 -95 16 -30 5 -68 12 -85 15 -16 2 -41 7 -55 10 -14 2 -50 9 -80 15 -30
6 -73 15 -95 20 -22 5 -74 16 -115 26 -242 53 -586 161 -803 250 -140 58 -385
183 -497 254 -220 140 -465 349 -583 499 -28 36 -55 68 -58 71 -20 15 -165
245 -208 331 -96 190 -173 421 -207 619 -2 14 -6 34 -8 45 -3 11 -8 47 -11 80
-4 33 -9 71 -12 85 -12 57 -10 517 3 620 7 58 16 130 20 160 3 30 8 58 10 61
2 3 6 21 9 40 37 209 149 507 264 699 58 96 153 233 211 301 61 73 233 245
295 294 27 22 58 48 69 57 36 33 252 176 346 229 129 74 281 147 425 204 66
26 129 51 140 55 40 17 338 108 375 115 8 2 33 8 55 13 22 6 51 13 65 16 14 2
68 13 120 24 52 11 111 23 130 26 19 3 49 8 65 10 118 19 168 26 225 31 36 4
76 8 89 10 143 24 854 24 1001 1 14 -2 57 -7 95 -11 76 -6 79 -7 235 -29 111
-17 123 -19 240 -43 131 -26 152 -31 270 -63 63 -17 124 -33 134 -35 24 -5
263 -83 291 -94 11 -5 83 -32 160 -61 316 -119 746 -326 1053 -507 41 -24 76
-43 78 -43 3 0 17 -8 32 -19 15 -10 84 -53 154 -96 85 -52 125 -82 119 -89 -4
-6 -59 -78 -121 -161 -98 -130 -130 -171 -168 -220 -5 -5 -55 -73 -112 -150
-58 -77 -107 -142 -110 -145 -7 -7 -150 -194 -175 -230 -11 -15 -49 -65 -83
-111 -35 -45 -112 -146 -170 -223 -59 -78 -109 -143 -112 -146 -3 -3 -17 -21
-30 -40 -13 -19 -27 -37 -30 -40 -3 -3 -23 -30 -45 -60 -22 -30 -44 -60 -50
-66 -5 -6 -28 -36 -50 -67 -22 -31 -44 -56 -48 -57 -4 0 -45 21 -90 47 -121
69 -511 262 -677 336 -387 172 -762 298 -1005 337 -186 30 -177 28 -275 37
-161 14 -399 8 -530 -13 -76 -11 -186 -46 -255 -80 -207 -101 -253 -291 -101
-417 104 -87 234 -134 546 -202 63 -14 144 -32 178 -41 35 -8 143 -30 240 -50
210 -41 191 -37 322 -64 58 -12 114 -24 125 -26 51 -9 296 -66 445 -104 632
-159 1023 -311 1368 -531 431 -274 736 -563 926 -876 47 -78 129 -245 147
-298 7 -22 16 -43 19 -47 6 -8 98 134 160 247 230 414 402 911 465 1340 4 22
8 47 10 55 2 8 7 40 10 70 4 30 8 69 10 85 26 196 26 729 1 885 -2 14 -8 52
-11 85 -4 33 -9 73 -11 89 -2 16 -13 79 -25 140 -76 403 -201 765 -392 1136
-38 74 -78 147 -88 162 -11 14 -19 29 -19 32 0 13 -228 357 -250 376 -3 3 -31
39 -62 80 -32 41 -76 95 -99 120 -23 25 -47 54 -55 64 -47 67 -405 409 -488
465 -12 8 -23 18 -26 21 -22 27 -279 206 -415 290 -150 92 -374 207 -531 273
-110 46 -295 116 -324 122 -8 2 -15 4 -15 5 0 1 -7 3 -15 5 -8 3 -62 18 -120
35 -58 17 -152 42 -210 55 -114 26 -125 28 -250 49 -81 14 -102 17 -230 32
-30 3 -66 8 -80 11 -28 5 -586 14 -591 9z"/>
<path d="M6985 3622 c-170 -19 -315 -148 -359 -318 -20 -78 -20 -117 0 -205
27 -120 113 -223 233 -281 121 -57 292 -46 402 26 257 170 260 541 7 709 -82
53 -191 80 -283 69z"/>
<path d="M6850 2430 c-134 -7 -178 -32 -233 -135 -22 -39 -22 -49 -25 -562 -1
-288 -1 -523 1 -523 19 0 311 126 428 184 150 75 343 197 413 261 l40 36 0
242 c1 279 -4 324 -46 390 -39 61 -92 95 -160 103 -73 8 -292 10 -418 4z"/>
</g>
</svg>
